<?xml version="1.0" encoding="iso-8859-1"?>
<!-- Uploaded to: SVG Repo, www.svgrepo.com, Generator: SVG Repo Mixer Tools -->
<!DOCTYPE svg PUBLIC "-//W3C//DTD SVG 1.1//EN" "http://www.w3.org/Graphics/SVG/1.1/DTD/svg11.dtd">
<svg height="800px" width="800px" version="1.1" id="Capa_1" xmlns="http://www.w3.org/2000/svg" xmlns:xlink="http://www.w3.org/1999/xlink" 
	 viewBox="0 0 435.001 435.001" xml:space="preserve">
<path style="fill:#231F20;" d="M417.501,244.4c-20.65,0-31.883,5.392-40.908,9.723c-7.592,3.644-13.077,6.277-25.762,6.277
	c-12.686,0-18.171-2.633-25.764-6.277c-8.132-3.903-18.079-8.652-35.066-9.557V83.044c0-39.394-32.05-71.443-71.443-71.443v35
	c20.095,0,36.443,16.349,36.443,36.443V116.4h-75.073V83.044c0-39.394-32.049-71.443-71.443-71.443v35
	c20.095,0,36.443,16.349,36.443,36.443v161.525c-16.95,0.913-26.883,5.656-35.005,9.554c-7.591,3.644-13.075,6.277-25.759,6.277
	c-12.684,0-18.168-2.633-25.759-6.276C49.38,249.791,38.148,244.4,17.5,244.4H0v60v46v73h435.001v-73v-46v-60H417.501z
	 M179.928,216.733h75.073v32.313c-4.507,1.607-8.291,3.419-11.746,5.077c-7.592,3.644-13.077,6.277-25.762,6.277
	c-12.684,0-18.169-2.633-25.76-6.276c-3.47-1.665-7.273-3.485-11.805-5.098V216.733z M255.001,151.4v30.333h-75.073V151.4H255.001z"
	/>
</svg>